<?xml version="1.0" encoding="utf-8"?>
<svg xmlns="http://www.w3.org/2000/svg" xmlns:xlink="http://www.w3.org/1999/xlink" version= "1.1" width="1073px" height="767px" viewBox="-177 328 1073 767">
<g id="layer1">
<g style="fill:rgb(5,180,205); fill-opacity:1.0; stroke-linejoin: miter">
<path d="M-177.001,326.75558C-177.33078,326.75558,-177.64705,326.8866,-177.88023,327.11978C-178.11342,327.35297,-178.24442,327.66922,-178.24442,327.999L-178.24341,1095.0C-178.24341,1095.6868,-177.6867,1096.2434,-177.0,1096.2434L896.001,1096.2444C896.33075,1096.2444,896.64703,1096.1134,896.8802,1095.8802C897.11334,1095.6471,897.2444,1095.3307,897.2444,1095.001L897.2434,328.0C897.2434,327.3133,896.6867,326.7566,896.0,326.7566L-177.001,326.75558 Z"/>
</g>
<g>
<g style="fill:rgb(217,226,231); fill-opacity:1.0; stroke-linejoin: miter">
<path d="M456.12924,927.63275L456.12924,1047.8701L897.2358,1047.8711L897.2444,927.63464L456.12924,927.63275 Z"/>
</g>
<g style="fill:rgb(255,255,255); fill-opacity:1.0; stroke-linejoin: miter">
<path d="M142.05405,483.7457L240.26,483.74594L338.46597,483.74615Q338.46597,607.1638,338.46597,730.58154Q240.26003,730.5817,142.0541,730.58203Q142.05408,607.1638,142.05405,483.7457"/>
</g>
<g style="fill:rgb(0,174,199); fill-opacity:0.99607843; stroke-linejoin: miter">
<path d="M751.54724,756.25226L751.54724,756.25226L751.54736,756.25244L751.54724,756.25226"/>
</g>
<g style="fill:rgb(0,174,199); fill-opacity:0.99607843; stroke-linejoin: miter">
<path d="M508.1676,867.0842L508.1678,867.08435L508.16782,867.0841L508.1676,867.0842"/>
</g>
<g style="fill:rgb(255,197,161); fill-opacity:0.99607843; stroke-linejoin: miter">
<path d="M455.90106,929.4016L454.62802,930.0861Q441.60712,936.84064,438.34494,941.7213L435.86676,945.2633Q423.5371,966.768,419.223,972.6794Q411.65237,983.69543,406.7831,987.99207Q400.83023,993.5767,391.654,997.38165Q381.14188,1001.7848,376.74023,1000.81635Q359.50354,997.99084,335.35422,994.7314Q328.13373,993.43286,325.5235,992.4317Q321.88406,991.23175,318.79578,989.39264L304.79813,979.9724L300.57172,978.15155L289.3258,974.40424Q287.25934,973.68835,283.09967,970.5676L269.66888,957.7825Q267.56,955.6399,266.61188,953.0935Q264.9347,941.1109,273.13602,940.0926L264.04462,917.8923Q262.525,911.88995,265.14105,911.09515Q268.17688,909.5602,273.95755,910.23114Q278.05365,911.71497,283.09058,915.51184Q288.59146,919.3493,291.0992,930.0633Q296.90326,932.9076,301.02942,936.42804L314.72153,950.801Q317.43292,953.46405,322.33325,956.62476Q326.66873,959.2243,330.18597,959.7957L341.78967,961.2783Q344.05795,961.44977,344.79236,961.1547Q345.6491,961.0969,347.1111,959.57983Q351.20523,950.9552,356.2795,946.38043L360.595,942.9704Q371.2512,936.121,379.75647,929.34845Q386.90195,923.60114,390.74875,918.59656Q393.4301,915.4929,397.81583,907.18005L411.8351,877.64166Q416.56866,869.727,419.01227,867.8897Q427.19894,859.35614,447.70667,861.58685Q458.60266,862.48627,472.05817,866.9137L455.90106,929.4016 Z"/>
</g>
<g style="fill:rgb(255,241,232); fill-opacity:0.99607843; stroke-linejoin: miter">
<path d="M359.59598,950.27155L359.5963,950.2725Q354.44342,955.9584,353.70444,957.8634Q352.1293,960.72504,352.7357,963.5747Q352.94806,964.5121,353.37964,965.3757Q353.8111,966.2394,354.4274,966.9787L355.08176,967.6746Q357.424,969.73645,359.90683,969.58984Q361.03375,969.57,362.6071,969.0319Q363.0079,968.9594,365.16818,967.8664Q365.5934,967.68066,367.82553,966.2481Q369.16736,965.37646,372.3698,963.00665L359.59598,950.27155 Z"/>
</g>
<g style="fill:rgb(254,196,160); fill-opacity:0.99607843; stroke-linejoin: miter">
<path d="M452.93198,866.6971L613.6284,857.6005L774.3248,848.50336Q771.0602,894.98303,767.79596,941.46295Q601.1545,942.2106,434.51324,942.9587L452.93198,866.6971"/>
</g>
<g style="fill:rgb(255,255,255); fill-opacity:1.0; stroke-linejoin: miter">
<path d="M226.83778,712.6198L232.29689,712.6199L237.75598,712.62006Q237.75598,741.4975,237.75598,770.37494Q232.29684,770.3751,226.83775,770.3753Q226.83778,741.4975,226.83778,712.6198"/>
</g>
<g style="fill:rgb(255,0,55); fill-opacity:1.0; stroke-linejoin: miter">
<path d="M234.34024,755.6557L234.34024,755.656C234.12338,788.9899,233.94258,821.7318,244.62733,848.35474L244.62733,848.35516C255.24716,874.8159,276.6392,895.26154,309.71683,901.64294L309.71683,901.64325C323.30234,904.26385,338.88596,904.52637,354.56924,904.78436L354.56924,904.78485C369.85275,905.03577,385.24838,905.2823,398.50546,907.8401L398.5054,907.8403C404.89252,909.0721,410.85736,910.85284,416.12793,913.47003L416.12793,913.47015C428.29337,919.5113,436.3825,929.847,444.0483,939.59L444.0483,939.5903C451.64764,949.24854,458.81705,958.3032,469.18536,963.4522L469.18536,963.4524C472.07944,964.8892,475.23056,966.0236,478.71783,966.772L478.7179,966.77234C482.4967,967.58295,486.70834,967.9489,491.2834,967.9489L491.2834,967.94934C508.50864,967.9489,530.1498,962.7821,551.6819,957.6276L551.6819,957.6281C567.9857,953.7249,584.2082,949.8374,598.01624,948.41614L598.01624,948.4164C602.72906,947.931,607.15424,947.733,611.30176,947.733L611.30176,947.7333C622.4919,947.733,631.63574,949.1779,638.7424,950.2988L638.7424,950.29913C643.4381,951.03955,647.0669,951.6056,649.9054,951.6056L649.9054,951.60596C653.5889,951.6056,655.17847,950.6913,656.0693,948.5046L656.0693,948.50476C657.99164,943.7862,656.93896,933.39496,655.5912,920.9632L655.5912,920.9635C654.21454,908.26526,652.6171,893.8543,655.1227,884.2936L655.1227,884.2939C659.3405,868.1994,674.6372,866.079,689.7489,866.079L689.7489,866.0791C693.23535,866.079,696.8054,866.1937,700.33527,866.30707C701.5443,866.34595,702.49274,867.3575,702.454,868.56635C702.4151,869.7753,701.4036,870.72394,700.1947,870.685L700.1947,870.6855C696.6519,870.5713,693.15283,870.45917,689.7489,870.45917L689.7489,870.45953C674.3245,870.45917,662.663,872.8001,659.35986,885.4041L659.35986,885.40436C657.1082,893.9954,658.5302,907.4339,659.94574,920.491L659.94574,920.4915C661.2162,932.209,662.5824,944.12695,660.1258,950.1571L660.1258,950.1574C658.2737,954.70355,654.4526,955.98596,649.9054,955.98596L649.9054,955.9862C646.6445,955.98596,642.62384,955.34546,638.05994,954.6255L638.05994,954.626C630.96466,953.5064,622.1173,952.1132,611.30176,952.1132L611.30176,952.1135C607.2943,952.1132,603.0199,952.30457,598.4648,952.77344L598.4648,952.7737C585.00604,954.15875,569.09283,957.964,552.7016,961.88763L552.7016,961.88794C531.34546,966.99994,509.13892,972.3294,491.2834,972.3294L491.2834,972.3296C486.48676,972.3294,481.9548,971.94653,477.79886,971.05475L477.79886,971.0551C473.94595,970.2281,470.4495,968.9706,467.2372,967.37537L467.2372,967.3756C455.83698,961.71405,448.09106,951.81195,440.60593,942.2985L440.60593,942.29895C432.8401,932.4285,425.32004,922.9254,414.17975,917.3934L414.17975,917.3936C409.36707,915.00336,403.80774,913.324,397.67566,912.14105L397.67566,912.1413C384.8685,909.6703,369.8849,909.4172,354.49725,909.1641L354.4972,909.16455C338.91095,908.9077,322.92038,908.6513,308.8871,905.944L308.8871,905.9443C274.2433,899.26044,251.69604,877.7279,240.56229,849.9863L240.56229,849.98663C229.49348,822.40643,229.74484,788.7207,229.96014,755.62726C229.968,754.4176,230.95491,753.4435,232.16447,753.4515C233.37398,753.4592,234.34813,754.44604,234.34024,755.6557 Z"/>
</g>
<g style="fill:rgb(255,255,255); fill-opacity:1.0; stroke-linejoin: miter">
<path d="M688.43604,859.17285L697.79376,859.17316L707.1516,859.1733Q707.1516,866.6441,707.1516,874.1149Q697.79376,874.11505,688.43604,874.1152Q688.43604,866.6441,688.43604,859.17285"/>
</g>
<g style="fill:rgb(210,238,255); fill-opacity:1.0; stroke-linejoin: miter">
<path d="M301.12537,509.959L181.91447,510.30057C168.79953,510.33676,158.08945,521.0907,158.12692,534.2068L158.48232,658.6397C158.51982,671.755,163.9487,689.34357,170.52188,697.7262C177.11157,706.12445,193.21718,712.9414,206.33199,712.90405L277.8644,712.701C290.9804,712.66235,307.06354,705.75323,313.58743,697.3177C320.13043,688.8975,325.44208,671.27826,325.40457,658.163L325.0491,533.73C325.0116,520.6139,314.2392,509.9215,301.12537,509.959 Z"/>
</g>
<g style="fill:rgb(255,0,55); fill-opacity:1.0; stroke-linejoin: miter">
<path d="M316.46695,586.61957C296.2334,588.7731,275.71204,594.68225,255.92815,602.09186C224.78757,613.7588,195.43439,621.19666,168.27046,619.0206L158.36919,619.05L158.48232,658.6409C158.51982,671.7559,163.94879,689.3446,170.52188,697.7272C177.11166,706.1254,193.21718,712.94275,206.33215,712.9052L277.8644,712.7021C290.9804,712.6635,307.06354,705.7542,313.58743,697.3187C320.13058,688.8985,325.44208,671.2791,325.40457,658.1642L325.2001,586.59546L316.46695,586.6219L316.46695,586.61957 Z"/>
</g>
<g style="fill:rgb(255,255,255); fill-opacity:0.2; stroke-linejoin: miter">
<path d="M301.12537,509.959L277.2855,510.0282C290.4015,509.9896,301.156,520.682,301.1935,533.79816L301.5489,658.2312C301.58643,671.3464,296.2747,688.9655,289.74982,697.3857C283.20673,705.82135,267.14252,712.7303,254.0267,712.76776L277.8644,712.701C290.9804,712.66235,307.06354,705.75323,313.58743,697.3177C320.13043,688.8975,325.44208,671.27826,325.40457,658.163L325.0491,533.73C325.0116,520.6139,314.2392,509.9215,301.12537,509.959 Z"/>
</g>
<g style="fill:rgb(255,0,55); fill-opacity:1.0; stroke-linejoin: miter">
<path d="M227.37538,696.1155L232.32957,696.11554L237.28375,696.11554Q237.28375,716.70746,237.28375,737.2995Q232.32957,737.29956,227.37538,737.2996Q227.37538,716.7075,227.37538,696.1155"/>
</g>
<g style="fill:rgb(125,139,150); fill-opacity:1.0; stroke-linejoin: miter">
<path d="M-136.12566,420.40564L-136.12566,437.48236L311.6645,437.4803L311.6645,420.40662L-136.12566,420.40564 Z"/>
</g>
<g style="fill:rgb(255,255,255); fill-opacity:1.0; stroke-linejoin: miter">
<path d="M758.28827,822.7834L758.28827,972.6895L897.2358,972.6891L897.2444,822.78595L758.28827,822.7834 Z"/>
</g>
<g style="fill:rgb(255,255,255); fill-opacity:1.0; stroke-linejoin: miter">
<path d="M224.86836,410.09106L238.12793,410.0913L251.38751,410.09146Q251.38753,451.71976,251.38756,493.3481Q238.12794,493.3483,224.86838,493.3485Q224.86836,451.7198,224.86836,410.09106"/>
</g>
</g>
<g style="fill:rgb(60,70,79); fill-opacity:1.0; stroke-linejoin: miter">
<path d="M-176.81602,403.10034L-154.32033,403.10086L-131.82463,403.10138Q-131.82463,425.59656,-131.82463,448.09177Q-154.32033,448.09225,-176.81602,448.09274Q-176.81602,425.59656,-176.81602,403.10034"/>
</g>
</g>
</svg>