<?xml version="1.0" encoding="utf-8"?>
<svg xmlns="http://www.w3.org/2000/svg" xmlns:xlink="http://www.w3.org/1999/xlink" version= "1.1" width="1180px" height="844px" viewBox="-230 291 1180 844">
<g id="layer1">
<g style="fill:rgb(0,174,199); fill-opacity:1.0; stroke-linejoin: miter">
<path d="M-249.67053,275.82043L-249.90952,275.8441L-250.88867,1139.4609L965.09424,1139.4592L965.0948,276.07437L-249.67053,275.82043 Z"/>
</g>
<g>
<g>
<g style="fill:rgb(236,154,94); fill-opacity:1.0; stroke-linejoin: miter">
<path d="M476.99554,591.5769L407.40616,613.80383L400.24203,628.8884Q375.50443,681.5159,369.14188,701.99414Q364.33817,715.9215,361.42288,728.9237L359.11456,741.62866Q357.34592,754.0694,358.275,765.18854L360.01328,775.9112L363.0276,785.1449Q366.73666,794.0382,372.7463,801.49207Q378.75592,808.94574,386.58795,814.8815L394.75623,820.41833Q403.32034,825.566,412.9897,829.0781Q422.6591,832.5905,432.95557,834.3889Q437.52213,835.9514,453.52533,835.9514Q457.7414,835.9514,462.75125,835.84296Q475.1453,834.7789,485.29492,831.7485Q495.85388,828.6844,505.3316,823.67267L514.4209,818.2123Q532.17664,806.27893,541.8165,787.7758Q546.51807,778.56256,548.4795,767.936L549.6374,756.9942L549.2306,745.4243Q548.02014,733.5392,544.13153,720.6039Q536.08685,694.6278,520.54285,665.70996Q509.62146,644.31055,476.99554,591.5769 Z"/>
</g>
<g style="fill:rgb(236,154,94); fill-opacity:1.0; stroke-linejoin: miter">
<path d="M466.412,450.46243Q459.96,450.46243,438.51996,460.58456Q416.34314,455.5003,408.19266,455.5003Q407.53482,455.5003,406.96835,455.53342Q395.38702,455.7095,392.02704,461.11407Q389.61145,464.0239,389.78693,471.30023L390.42117,476.6899Q391.45255,482.49313,393.78372,489.6504Q399.0883,506.998,419.9598,550.01886L424.5658,559.5452L469.08438,569.05634Q482.3176,501.43365,482.5505,486.9997Q483.2213,478.70703,483.02454,472.0983L482.56256,466.00394Q481.86124,460.41153,479.9954,456.927Q477.1924,450.47025,467.69266,450.47025Q467.3159,450.47025,466.9286,450.4804Q466.68356,450.46243,466.412,450.46243 Z"/>
</g>
<g style="fill:rgb(0,0,0); fill-opacity:0.105882354; stroke-linejoin: miter">
<path d="M438.95798,603.72614L407.40616,613.80383L400.24203,628.8884Q375.50443,681.5159,369.14188,701.99414Q364.33817,715.9215,361.42288,728.9237L359.11456,741.62866Q357.34592,754.0694,358.275,765.18854L360.01328,775.9112L363.0276,785.1449Q366.73666,794.0382,372.7463,801.49207Q378.75592,808.94574,386.58795,814.8815L394.75623,820.41833Q403.32034,825.566,412.9897,829.0781Q422.6591,832.5905,432.95557,834.3889Q437.52237,835.9514,453.52652,835.9514Q454.84732,835.9514,456.24622,835.94086Q451.9482,835.07117,447.9964,834.07983Q415.7987,826.73846,403.46292,800.44666Q399.55298,790.73334,398.5322,778.9588Q396.70972,773.79047,400.32507,740.8956Q400.66928,734.18115,409.1968,700.39136L438.8016,604.3688Q438.88297,604.0476,438.96313,603.72614 Z"/>
</g>
<g style="fill:rgb(0,0,0); fill-opacity:0.105882354; stroke-linejoin: miter">
<path d="M408.19266,455.5003Q407.53485,455.5003,406.96835,455.53342Q395.38702,455.7095,392.02704,461.11407Q389.61145,464.0239,389.78693,471.30023L390.42117,476.6899Q391.45255,482.49313,393.78372,489.6504Q399.0883,506.998,419.9598,550.01886L424.5658,559.5452L443.99664,563.6965Q443.73026,525.2516,425.3736,457.7764Q413.64606,455.5003,408.19266,455.5003 Z"/>
</g>
</g>
<g style="fill:rgb(255,177,133); fill-opacity:1.0; stroke-linejoin: miter">
<path d="M415.47928,537.7035Q414.1307,537.7035,413.2146,537.9006Q405.57153,538.5127,402.87073,546.07385Q400.55994,551.2387,402.44208,572.1679L401.24933,573.2747Q391.53732,582.1016,391.4364,587.3291Q390.85052,593.1298,395.14462,602.388Q391.77963,616.88916,394.07004,625.1209Q395.7817,630.32367,399.94223,634.2854Q402.4587,637.16626,412.77786,644.1739Q417.60928,651.72516,420.65112,654.1211Q424.19632,656.9965,426.6099,657.80914Q431.36008,659.51,437.35724,659.51Q447.65894,659.51,461.6401,654.49115Q484.43872,647.0334,531.9421,625.20715L530.7022,554.4888L495.86032,554.5391L480.63602,538.1046Q456.0961,544.6081,446.8785,544.6081Q446.20264,544.6081,445.60916,544.5732Q441.11838,544.4478,437.60437,543.4555Q423.50903,538.41223,422.54788,538.41223Q422.44287,538.41223,422.4947,538.4725Q418.1432,537.7035,415.47928,537.7035 Z"/>
</g>
<g style="fill:rgb(255,255,255); fill-opacity:1.0; stroke-linejoin: miter">
<path d="M558.40985,554.5699L534.6184,554.57056L510.82684,554.5707Q510.8271,599.96796,510.8269,645.3657Q534.6184,645.3662,558.41,645.3664Q558.40985,599.96796,558.40985,554.5699 Z"/>
</g>
<g style="fill:rgb(0,128,128); fill-opacity:0.99607843; stroke-linejoin: miter">
<path d="M389.6334,753.6373L389.6334,753.6378L389.6335,753.6385L389.6334,753.6373 Z"/>
</g>
<g>
<g style="fill:rgb(255,255,255); fill-opacity:1.0; stroke-linejoin: miter">
<path d="M473.14716,689.9555L473.14734,689.95654L473.14737,689.95557L473.14743,689.9566L473.14645,689.9562L473.14548,689.9566L473.1463,689.9562L473.14716,689.9555"/>
</g>
<g style="fill:rgb(255,255,255); fill-opacity:1.0; stroke-linejoin: miter">
<path d="M476.2753,729.70245L476.2754,729.7034L476.27542,729.7025L476.27548,729.7035L476.27554,729.7026L476.27557,729.70355L476.2756,729.7027L476.27563,729.7037L476.27463,729.7031L476.27362,729.7036L476.27444,729.70306L476.2753,729.70245"/>
</g>
<g style="fill:rgb(255,255,255); fill-opacity:1.0; stroke-linejoin: miter">
<path d="M471.47644,668.7482L466.8082,669.11566L467.41696,676.85126Q459.26852,679.0362,454.6777,685.50354Q450.09222,692.0377,450.56018,701.39514Q451.3149,712.25757,455.89676,717.2254Q459.24985,721.84247,471.37436,727.13464L473.32687,751.9427Q470.8086,751.7756,467.88165,748.43634Q465.87375,745.15314,465.90662,739.509L453.40494,737.5404L454.00348,744.91425Q455.07748,752.83545,459.9903,758.3339Q466.53082,765.2401,474.39758,765.5471L475.02737,773.5498L479.69565,773.1826L479.07642,765.31335Q485.62933,764.4341,492.08255,756.64014Q496.83145,749.6231,496.32278,740.60443Q495.53503,729.73114,491.67935,725.9393Q489.30157,721.9472,475.11893,715.02997L473.14554,689.9562Q475.8243,690.1056,478.91617,693.4794Q481.038,696.83496,480.97644,702.49084L493.47818,704.45917L493.2263,701.2582Q493.14822,692.61566,489.02863,686.3854Q482.09366,677.1281,472.07468,676.35046L471.47644,668.7482 Z M468.4878,690.456L470.20926,712.3297Q468.70267,711.3746,467.50113,710.2563L466.3761,709.09735L465.40363,707.8566L464.58383,706.5344L463.91666,705.1306L463.40213,703.6451L463.04025,702.07806L462.83096,700.42944L462.78467,698.83093L462.90714,697.3549L463.19824,696.0016L463.6581,694.77094L464.28665,693.6627Q465.71234,691.569,468.4878,690.456 M476.2786,729.7043L477.78568,730.6145Q480.63904,732.5371,482.2056,735.276L482.9085,736.6965L483.4505,738.21906L483.83163,739.84375L484.052,741.5704L484.09958,743.24835L483.967,744.7847L483.65433,746.17957L483.16147,747.4328L482.48843,748.54443Q480.9623,750.6262,477.995,751.57544L476.2786,729.7043"/>
</g>
</g>
<g style="fill:rgb(255,255,255); fill-opacity:1.0; stroke-linejoin: miter">
<path d="M557.85815,487.892L557.85815,487.89224L557.8583,487.89252L557.85815,487.892 Z"/>
</g>
<g style="fill:rgb(0,0,0); fill-opacity:1.0; stroke-linejoin: miter">
<path d="M538.47345,548.0242L538.47345,670.69525L965.0946,670.6955L965.0946,548.02515L538.47345,548.0242 Z"/>
</g>
</g>
<g>
<g style="fill:rgb(0,0,0); fill-opacity:1.0; stroke-linejoin: miter">
<path d="M18.261766,495.7373L15.701096,495.78094Q-6.8218026,496.87543,-22.187897,507.55444Q-37.823795,519.5886,-42.413982,534.28516Q-46.574467,545.85376,-48.169365,563.0337Q-48.96897,566.4519,-49.118595,591.95984L-26.935452,613.5291L78.36256,575.9777Q84.43659,559.23926,82.02292,545.3761Q81.218346,540.755,79.47072,536.4535Q73.66592,524.60516,71.29687,522.02814Q61.214584,507.96454,46.352333,501.354Q34.96936,496.1364,18.261766,495.7373 Z"/>
</g>
<g style="fill:rgb(0,0,0); fill-opacity:1.0; stroke-linejoin: miter">
<path d="M-129.26744,1007.79846L-132.1505,1028.8849Q-141.0711,1088.7849,-130.6387,1139.4608L209.88535,1139.4613L-129.26744,1007.79846 Z"/>
</g>
<g style="fill:rgb(255,177,133); fill-opacity:1.0; stroke-linejoin: miter">
<path d="M184.58315,880.4199L125.0925,899.53925Q147.57127,977.00476,162.9754,1002.48035Q178.14578,1028.6997,197.3215,1022.3965Q203.26468,1020.58997,211.2518,1012.5908Q219.00735,1002.56555,219.6608,999.4531Q227.21938,982.49506,224.71446,964.2067Q222.18149,944.93054,209.47287,920.3733Q203.11859,908.0946,194.22034,894.4956L184.58315,880.4199 Z"/>
</g>
<g style="fill:rgb(255,255,255); fill-opacity:1.0; stroke-linejoin: miter">
<path d="M-68.152214,690.50824L-72.38537,708.21704L-154.16101,753.9626Q-187.79678,830.75604,-182.66843,860.4048Q-182.36876,875.9035,-178.56184,902.20013L-75.17867,896.1398Q-92.01734,1000.548,-91.78337,1041.5269Q-92.529076,1093.9044,-68.87392,1139.4607L-63.362637,1139.4617L168.76996,1004.73486L145.35205,898.45337L194.24417,886.2833Q181.05504,829.91345,147.3018,765.883L59.65853,723.0L57.296753,701.57306L-68.152214,690.50824 Z"/>
</g>
<g style="fill:rgb(70,116,139); fill-opacity:1.0; stroke-linejoin: miter">
<path d="M119.48114,1004.9657L101.507706,1005.47595Q32.236156,1008.7405,-16.991854,1047.9507Q-73.14566,1093.2415,-68.00156,1139.4607L471.45776,1139.4609Q467.09723,1106.1147,453.9322,1094.7426L435.43774,1077.3864L410.35452,1061.7831L378.68292,1047.933L340.42267,1035.8357L295.57385,1025.491L244.13641,1016.8993L186.1103,1010.06055L119.48114,1004.9657 Z"/>
</g>
<g style="fill:rgb(255,177,133); fill-opacity:1.0; stroke-linejoin: miter">
<path d="M-70.200096,882.4891L-174.36295,897.9914Q-168.06485,941.8371,-158.1447,968.6562Q-149.62039,992.8181,-125.3523,1030.077L-55.510193,1045.9025Q-42.11401,1048.8563,-39.171093,1048.8563Q-38.73934,1048.8563,-38.53258,1048.7931Q-24.77652,1046.9639,-15.021566,1046.4604L66.20614,1043.1917Q90.132645,1041.9299,103.3462,1040.2712Q132.8986,1036.5327,132.80873,1027.7557L132.81264,1027.7557Q149.76021,1044.5238,164.77391,1044.5238Q165.87677,1044.5238,166.96918,1044.4332Q179.75925,1043.098,191.33443,1029.6481Q201.63307,1016.6698,199.36966,1004.9115Q192.52643,984.6318,150.93001,980.583Q147.63107,980.3375,144.21298,980.3375Q134.359,980.3375,123.515076,982.379Q117.26886,983.13257,83.66955,992.9967Q76.509346,994.7677,71.509094,995.3657Q66.313385,996.0697,60.776917,996.0697Q52.136993,996.0696,42.667088,994.3553Q20.03189,991.3192,-65.015236,956.46246Q-56.562496,933.5276,-70.13947,882.75323L-70.200096,882.4891 Z"/>
</g>
<g style="fill:rgb(0,0,0); fill-opacity:1.0; stroke-linejoin: miter">
<path d="M497.10825,863.85297L276.91653,869.554L176.36551,1039.8418L32.801674,1037.0342L32.83277,1052.331L169.67113,1076.9974L387.48322,1064.6736L395.98517,1038.7314L497.0094,864.0385L497.10825,863.85297 Z"/>
</g>
<g style="fill:rgb(255,190,128); fill-opacity:1.0; stroke-linejoin: miter">
<path d="M40.48462,1027.264Q36.980526,1027.264,34.732544,1027.5525Q30.971687,1027.9824,28.885597,1029.6124L25.697666,1044.8384Q34.855938,1044.5342,55.302032,1042.8689Q72.18897,1041.5154,82.292625,1040.2616Q100.991844,1037.9519,99.63888,1035.6782L99.61734,1035.6447Q97.3409,1032.9847,72.90215,1029.8724Q51.01809,1027.264,40.48462,1027.264 Z"/>
</g>
<g style="fill:rgb(238,0,255); fill-opacity:1.0; stroke-linejoin: miter">
<path d="M-81.575516,1109.9064L-70.24111,1139.4606L-67.43896,1139.4617Q-67.87889,1136.0032,-68.184845,1134.124L-81.575516,1109.9064 Z"/>
</g>
<g style="fill:rgb(255,177,133); fill-opacity:1.0; stroke-linejoin: miter">
<path d="M4.5873446,539.3362Q4.382322,539.3362,4.179313,539.3381L4.1468596,539.3385Q-11.96179,539.71277,-15.908655,548.048Q-17.156801,550.75226,-17.270864,554.93634Q-17.509829,556.4688,-16.367607,569.12177Q-16.338636,572.1866,-16.795258,573.3152Q-17.352333,575.132,-18.935814,576.4567L-25.54798,580.8041Q-26.966774,582.3102,-27.392864,584.91864Q-27.841835,587.71234,-27.556602,591.32404L-26.167124,602.94025L-33.504284,604.30927Q-31.930126,595.2459,-46.819996,584.51904Q-49.383686,583.0942,-51.21621,583.0942Q-54.047676,583.0942,-55.133472,586.4961Q-57.642418,598.1717,-51.56017,619.36975Q-49.65184,625.2651,-47.2634,628.27045Q-46.020363,630.34265,-39.746174,634.29285Q-38.773766,635.1371,-38.042496,636.4061Q-36.256416,639.81116,-35.811104,646.0095Q-34.117073,670.3376,-46.580593,694.3104L4.392568,712.7593L33.8442,759.6932L45.663082,718.24615L48.49789,688.434Q64.89309,671.78125,76.363945,633.15796Q77.5078,628.2483,77.83862,623.12164L78.37366,602.1223L80.1557,576.7636Q80.65482,566.25256,79.796364,559.9861Q78.556625,548.1018,70.05736,546.1332Q67.64285,545.4608,63.752274,545.3802Q53.200577,545.9443,47.562214,545.9443Q43.208973,545.9443,41.78456,545.60803Q41.72003,545.61096,41.643986,545.61096Q38.42502,545.61096,14.548347,540.2577Q9.080262,539.3362,4.5873446,539.3362 Z"/>
</g>
<g style="fill:rgb(255,13,0); fill-opacity:0.10980392; stroke-linejoin: miter">
<path d="M-20.208225,671.3396L11.992644,710.1972L44.791924,689.9187Q35.31214,694.7506,26.90139,696.0019Q18.735065,697.1712,11.754514,695.17255Q-2.7518432,690.7812,-20.208225,671.3396 Z"/>
</g>
<g style="fill:rgb(0,0,0); fill-opacity:0.23529412; stroke-linejoin: miter">
<path d="M-21.605038,669.6873L-21.332138,670.0103L-20.560892,670.9224L-20.3189,671.20807Q-20.30266,671.2272,-20.302334,671.22736L-20.302328,671.22736Q-20.302328,671.2272,-20.318033,671.2083L-21.575027,669.71686L-21.605038,669.6873 Z"/>
</g>
<g style="fill:rgb(0,0,0); fill-opacity:0.11764706; stroke-linejoin: miter">
<path d="M-77.97836,798.40216L-70.19937,875.3809Q-68.61518,864.3222,-68.33068,856.9044Q-68.156,853.82764,-68.32131,848.68823Q-68.3984,845.9982,-68.80247,841.715Q-69.58623,833.5473,-72.399704,820.67773Q-75.209854,808.27844,-77.97836,798.40216 Z"/>
</g>
<g style="fill:rgb(0,0,0); fill-opacity:0.11764706; stroke-linejoin: miter">
<path d="M153.49185,823.8494L149.89836,893.5969Q153.49817,884.6835,155.76378,876.3094Q156.47844,873.8366,157.3844,868.2481Q157.84213,865.0692,157.99521,861.963L158.08478,858.7159L158.02715,855.22314L157.82224,851.4848L157.47018,847.5008L156.97101,843.2711Q155.83049,834.58997,153.49185,823.8494 Z"/>
</g>
<g style="fill:rgb(0,0,0); fill-opacity:0.11764706; stroke-linejoin: miter">
<path d="M70.20053,967.692L64.702736,967.7483Q42.149235,968.2003,10.598184,972.26654L136.30573,974.93585Q111.6196,970.5789,97.945854,969.2088Q90.08332,968.4395,88.58391,968.3739Q85.508965,968.1507,82.49488,968.00085Q76.707695,967.7021,70.20053,967.692 Z"/>
</g>
<g style="fill:rgb(0,0,0); fill-opacity:0.11764706; stroke-linejoin: miter">
<path d="M391.23517,1123.7418L380.1493,1139.46L385.0639,1139.461Q388.12943,1132.6053,391.23517,1123.7418 Z"/>
</g>
<g style="fill:rgb(0,0,0); fill-opacity:0.11764706; stroke-linejoin: miter">
<path d="M226.32822,1078.8467L229.8349,1080.4598Q248.90826,1088.8557,259.3862,1101.7365Q269.1647,1112.2054,277.36627,1139.4612L287.93008,1139.4613L285.74405,1105.1443L226.32822,1078.8467 Z"/>
</g>
</g>
</g>
</svg>